<?xml version="1.0" encoding="UTF-8"?><svg xmlns="http://www.w3.org/2000/svg" width="640" height="820" viewBox="0 0 640 820" shape-rendering="crispEdges"><rect x="0" y="0" width="640" height="820" fill="#fff" stroke="none" stroke-width="0" /><rect x="44" y="36" width="552" height="738" fill="#fff" stroke="#000" stroke-width="4" /><rect x="44" y="36" width="552" height="34" fill="#fff" stroke="#000" stroke-width="4" /><rect x="56" y="46" width="16" height="16" fill="#fff" stroke="#000" stroke-width="3" /><rect x="80" y="46" width="16" height="16" fill="#fff" stroke="#000" stroke-width="3" /><rect x="104" y="46" width="16" height="16" fill="#fff" stroke="#000" stroke-width="3" /><text x="320" y="60" font-family="monospace" font-size="16" font-weight="700" text-anchor="middle" fill="#000">git-hired // ENTP MBTI Work Persona</text><rect x="126" y="206" width="388" height="334" fill="#fff" stroke="#000" stroke-width="4" /><line x1="150" y1="250" x2="490" y2="250" stroke="#000" stroke-width="4" /><line x1="150" y1="498" x2="490" y2="498" stroke="#000" stroke-width="4" /><rect x="154" y="108" width="16" height="16" fill="#000" stroke="none" stroke-width="0" /><rect x="170" y="108" width="16" height="16" fill="#000" stroke="none" stroke-width="0" /><rect x="186" y="108" width="16" height="16" fill="#000" stroke="none" stroke-width="0" /><rect x="202" y="108" width="16" height="16" fill="#000" stroke="none" stroke-width="0" /><rect x="218" y="108" width="16" height="16" fill="#000" stroke="none" stroke-width="0" /><rect x="154" y="124" width="16" height="16" fill="#000" stroke="none" stroke-width="0" /><rect x="154" y="140" width="16" height="16" fill="#000" stroke="none" stroke-width="0" /><rect x="170" y="140" width="16" height="16" fill="#000" stroke="none" stroke-width="0" /><rect x="186" y="140" width="16" height="16" fill="#000" stroke="none" stroke-width="0" /><rect x="202" y="140" width="16" height="16" fill="#000" stroke="none" stroke-width="0" /><rect x="154" y="156" width="16" height="16" fill="#000" stroke="none" stroke-width="0" /><rect x="154" y="172" width="16" height="16" fill="#000" stroke="none" stroke-width="0" /><rect x="170" y="172" width="16" height="16" fill="#000" stroke="none" stroke-width="0" /><rect x="186" y="172" width="16" height="16" fill="#000" stroke="none" stroke-width="0" /><rect x="202" y="172" width="16" height="16" fill="#000" stroke="none" stroke-width="0" /><rect x="218" y="172" width="16" height="16" fill="#000" stroke="none" stroke-width="0" /><rect x="246" y="108" width="16" height="16" fill="#000" stroke="none" stroke-width="0" /><rect x="310" y="108" width="16" height="16" fill="#000" stroke="none" stroke-width="0" /><rect x="246" y="124" width="16" height="16" fill="#000" stroke="none" stroke-width="0" /><rect x="262" y="124" width="16" height="16" fill="#000" stroke="none" stroke-width="0" /><rect x="310" y="124" width="16" height="16" fill="#000" stroke="none" stroke-width="0" /><rect x="246" y="140" width="16" height="16" fill="#000" stroke="none" stroke-width="0" /><rect x="278" y="140" width="16" height="16" fill="#000" stroke="none" stroke-width="0" /><rect x="310" y="140" width="16" height="16" fill="#000" stroke="none" stroke-width="0" /><rect x="246" y="156" width="16" height="16" fill="#000" stroke="none" stroke-width="0" /><rect x="294" y="156" width="16" height="16" fill="#000" stroke="none" stroke-width="0" /><rect x="310" y="156" width="16" height="16" fill="#000" stroke="none" stroke-width="0" /><rect x="246" y="172" width="16" height="16" fill="#000" stroke="none" stroke-width="0" /><rect x="310" y="172" width="16" height="16" fill="#000" stroke="none" stroke-width="0" /><rect x="338" y="108" width="16" height="16" fill="#000" stroke="none" stroke-width="0" /><rect x="354" y="108" width="16" height="16" fill="#000" stroke="none" stroke-width="0" /><rect x="370" y="108" width="16" height="16" fill="#000" stroke="none" stroke-width="0" /><rect x="386" y="108" width="16" height="16" fill="#000" stroke="none" stroke-width="0" /><rect x="402" y="108" width="16" height="16" fill="#000" stroke="none" stroke-width="0" /><rect x="370" y="124" width="16" height="16" fill="#000" stroke="none" stroke-width="0" /><rect x="370" y="140" width="16" height="16" fill="#000" stroke="none" stroke-width="0" /><rect x="370" y="156" width="16" height="16" fill="#000" stroke="none" stroke-width="0" /><rect x="370" y="172" width="16" height="16" fill="#000" stroke="none" stroke-width="0" /><rect x="430" y="108" width="16" height="16" fill="#000" stroke="none" stroke-width="0" /><rect x="446" y="108" width="16" height="16" fill="#000" stroke="none" stroke-width="0" /><rect x="462" y="108" width="16" height="16" fill="#000" stroke="none" stroke-width="0" /><rect x="478" y="108" width="16" height="16" fill="#000" stroke="none" stroke-width="0" /><rect x="430" y="124" width="16" height="16" fill="#000" stroke="none" stroke-width="0" /><rect x="478" y="124" width="16" height="16" fill="#000" stroke="none" stroke-width="0" /><rect x="430" y="140" width="16" height="16" fill="#000" stroke="none" stroke-width="0" /><rect x="446" y="140" width="16" height="16" fill="#000" stroke="none" stroke-width="0" /><rect x="462" y="140" width="16" height="16" fill="#000" stroke="none" stroke-width="0" /><rect x="478" y="140" width="16" height="16" fill="#000" stroke="none" stroke-width="0" /><rect x="430" y="156" width="16" height="16" fill="#000" stroke="none" stroke-width="0" /><rect x="430" y="172" width="16" height="16" fill="#000" stroke="none" stroke-width="0" /><text x="320" y="194" font-family="monospace" font-size="18" font-weight="700" text-anchor="middle" fill="#000">prototype-hungry idea hacker</text><rect x="274" y="290" width="16" height="16" fill="#000" stroke="none" stroke-width="0" /><rect x="290" y="290" width="16" height="16" fill="#000" stroke="none" stroke-width="0" /><rect x="306" y="290" width="16" height="16" fill="#000" stroke="none" stroke-width="0" /><rect x="322" y="290" width="16" height="16" fill="#000" stroke="none" stroke-width="0" /><rect x="258" y="306" width="16" height="16" fill="#000" stroke="none" stroke-width="0" /><rect x="274" y="306" width="16" height="16" fill="#000" stroke="none" stroke-width="0" /><rect x="290" y="306" width="16" height="16" fill="#000" stroke="none" stroke-width="0" /><rect x="306" y="306" width="16" height="16" fill="#000" stroke="none" stroke-width="0" /><rect x="322" y="306" width="16" height="16" fill="#000" stroke="none" stroke-width="0" /><rect x="338" y="306" width="16" height="16" fill="#000" stroke="none" stroke-width="0" /><rect x="242" y="322" width="16" height="16" fill="#000" stroke="none" stroke-width="0" /><rect x="258" y="322" width="16" height="16" fill="#000" stroke="none" stroke-width="0" /><rect x="338" y="322" width="16" height="16" fill="#000" stroke="none" stroke-width="0" /><rect x="354" y="322" width="16" height="16" fill="#000" stroke="none" stroke-width="0" /><rect x="242" y="338" width="16" height="16" fill="#000" stroke="none" stroke-width="0" /><rect x="258" y="338" width="16" height="16" fill="#000" stroke="none" stroke-width="0" /><rect x="338" y="338" width="16" height="16" fill="#000" stroke="none" stroke-width="0" /><rect x="354" y="338" width="16" height="16" fill="#000" stroke="none" stroke-width="0" /><rect x="242" y="354" width="16" height="16" fill="#000" stroke="none" stroke-width="0" /><rect x="258" y="354" width="16" height="16" fill="#000" stroke="none" stroke-width="0" /><rect x="338" y="354" width="16" height="16" fill="#000" stroke="none" stroke-width="0" /><rect x="354" y="354" width="16" height="16" fill="#000" stroke="none" stroke-width="0" /><rect x="258" y="370" width="16" height="16" fill="#000" stroke="none" stroke-width="0" /><rect x="274" y="370" width="16" height="16" fill="#000" stroke="none" stroke-width="0" /><rect x="290" y="370" width="16" height="16" fill="#000" stroke="none" stroke-width="0" /><rect x="306" y="370" width="16" height="16" fill="#000" stroke="none" stroke-width="0" /><rect x="322" y="370" width="16" height="16" fill="#000" stroke="none" stroke-width="0" /><rect x="338" y="370" width="16" height="16" fill="#000" stroke="none" stroke-width="0" /><rect x="274" y="386" width="16" height="16" fill="#000" stroke="none" stroke-width="0" /><rect x="290" y="386" width="16" height="16" fill="#000" stroke="none" stroke-width="0" /><rect x="306" y="386" width="16" height="16" fill="#000" stroke="none" stroke-width="0" /><rect x="322" y="386" width="16" height="16" fill="#000" stroke="none" stroke-width="0" /><rect x="274" y="402" width="16" height="16" fill="#000" stroke="none" stroke-width="0" /><rect x="290" y="402" width="16" height="16" fill="#000" stroke="none" stroke-width="0" /><rect x="306" y="402" width="16" height="16" fill="#000" stroke="none" stroke-width="0" /><rect x="322" y="402" width="16" height="16" fill="#000" stroke="none" stroke-width="0" /><rect x="258" y="418" width="16" height="16" fill="#000" stroke="none" stroke-width="0" /><rect x="274" y="418" width="16" height="16" fill="#000" stroke="none" stroke-width="0" /><rect x="290" y="418" width="16" height="16" fill="#000" stroke="none" stroke-width="0" /><rect x="306" y="418" width="16" height="16" fill="#000" stroke="none" stroke-width="0" /><rect x="322" y="418" width="16" height="16" fill="#000" stroke="none" stroke-width="0" /><rect x="338" y="418" width="16" height="16" fill="#000" stroke="none" stroke-width="0" /><rect x="242" y="434" width="16" height="16" fill="#000" stroke="none" stroke-width="0" /><rect x="258" y="434" width="16" height="16" fill="#000" stroke="none" stroke-width="0" /><rect x="338" y="434" width="16" height="16" fill="#000" stroke="none" stroke-width="0" /><rect x="354" y="434" width="16" height="16" fill="#000" stroke="none" stroke-width="0" /><rect x="242" y="450" width="16" height="16" fill="#000" stroke="none" stroke-width="0" /><rect x="258" y="450" width="16" height="16" fill="#000" stroke="none" stroke-width="0" /><rect x="338" y="450" width="16" height="16" fill="#000" stroke="none" stroke-width="0" /><rect x="354" y="450" width="16" height="16" fill="#000" stroke="none" stroke-width="0" /><rect x="274" y="466" width="16" height="16" fill="#000" stroke="none" stroke-width="0" /><rect x="290" y="466" width="16" height="16" fill="#000" stroke="none" stroke-width="0" /><rect x="306" y="466" width="16" height="16" fill="#000" stroke="none" stroke-width="0" /><rect x="322" y="466" width="16" height="16" fill="#000" stroke="none" stroke-width="0" /><rect x="418" y="254" width="36" height="36" fill="#000" stroke="none" stroke-width="0" /><rect x="428" y="264" width="16" height="16" fill="#fff" stroke="none" stroke-width="0" /><line x1="198" y1="500" x2="266" y2="478" stroke="#000" stroke-width="4" /><line x1="266" y1="478" x2="338" y2="512" stroke="#000" stroke-width="4" /><line x1="338" y1="512" x2="434" y2="474" stroke="#000" stroke-width="4" /><text x="320" y="572" font-family="monospace" font-size="18" font-weight="700" text-anchor="middle" fill="#000">work personality</text><rect x="86" y="616" width="88" height="88" fill="#fff" stroke="#000" stroke-width="4" /><text x="130" y="640" font-family="monospace" font-size="20" font-weight="800" text-anchor="middle" fill="#000">E</text><text x="130" y="692" font-family="monospace" font-size="12" font-weight="600" text-anchor="middle" fill="#000">energy</text><rect x="110" y="644" width="6" height="6" fill="#000" stroke="none" stroke-width="0" /><rect x="116" y="644" width="6" height="6" fill="#000" stroke="none" stroke-width="0" /><rect x="122" y="644" width="6" height="6" fill="#000" stroke="none" stroke-width="0" /><rect x="128" y="644" width="6" height="6" fill="#000" stroke="none" stroke-width="0" /><rect x="134" y="644" width="6" height="6" fill="#000" stroke="none" stroke-width="0" /><rect x="140" y="644" width="6" height="6" fill="#000" stroke="none" stroke-width="0" /><rect x="104" y="650" width="6" height="6" fill="#000" stroke="none" stroke-width="0" /><rect x="110" y="650" width="6" height="6" fill="#000" stroke="none" stroke-width="0" /><rect x="140" y="650" width="6" height="6" fill="#000" stroke="none" stroke-width="0" /><rect x="146" y="650" width="6" height="6" fill="#000" stroke="none" stroke-width="0" /><rect x="104" y="656" width="6" height="6" fill="#000" stroke="none" stroke-width="0" /><rect x="110" y="656" width="6" height="6" fill="#000" stroke="none" stroke-width="0" /><rect x="140" y="656" width="6" height="6" fill="#000" stroke="none" stroke-width="0" /><rect x="146" y="656" width="6" height="6" fill="#000" stroke="none" stroke-width="0" /><rect x="110" y="662" width="6" height="6" fill="#000" stroke="none" stroke-width="0" /><rect x="116" y="662" width="6" height="6" fill="#000" stroke="none" stroke-width="0" /><rect x="122" y="662" width="6" height="6" fill="#000" stroke="none" stroke-width="0" /><rect x="128" y="662" width="6" height="6" fill="#000" stroke="none" stroke-width="0" /><rect x="134" y="662" width="6" height="6" fill="#000" stroke="none" stroke-width="0" /><rect x="140" y="662" width="6" height="6" fill="#000" stroke="none" stroke-width="0" /><rect x="122" y="668" width="6" height="6" fill="#000" stroke="none" stroke-width="0" /><rect x="128" y="668" width="6" height="6" fill="#000" stroke="none" stroke-width="0" /><rect x="116" y="674" width="6" height="6" fill="#000" stroke="none" stroke-width="0" /><rect x="122" y="674" width="6" height="6" fill="#000" stroke="none" stroke-width="0" /><rect x="192" y="616" width="88" height="88" fill="#fff" stroke="#000" stroke-width="4" /><text x="236" y="640" font-family="monospace" font-size="20" font-weight="800" text-anchor="middle" fill="#000">N</text><text x="236" y="692" font-family="monospace" font-size="12" font-weight="600" text-anchor="middle" fill="#000">pattern</text><rect x="222" y="644" width="6" height="6" fill="#000" stroke="none" stroke-width="0" /><rect x="228" y="644" width="6" height="6" fill="#000" stroke="none" stroke-width="0" /><rect x="246" y="644" width="6" height="6" fill="#000" stroke="none" stroke-width="0" /><rect x="252" y="644" width="6" height="6" fill="#000" stroke="none" stroke-width="0" /><rect x="216" y="650" width="6" height="6" fill="#000" stroke="none" stroke-width="0" /><rect x="222" y="650" width="6" height="6" fill="#000" stroke="none" stroke-width="0" /><rect x="228" y="650" width="6" height="6" fill="#000" stroke="none" stroke-width="0" /><rect x="234" y="650" width="6" height="6" fill="#000" stroke="none" stroke-width="0" /><rect x="240" y="650" width="6" height="6" fill="#000" stroke="none" stroke-width="0" /><rect x="246" y="650" width="6" height="6" fill="#000" stroke="none" stroke-width="0" /><rect x="252" y="650" width="6" height="6" fill="#000" stroke="none" stroke-width="0" /><rect x="258" y="650" width="6" height="6" fill="#000" stroke="none" stroke-width="0" /><rect x="222" y="656" width="6" height="6" fill="#000" stroke="none" stroke-width="0" /><rect x="228" y="656" width="6" height="6" fill="#000" stroke="none" stroke-width="0" /><rect x="234" y="656" width="6" height="6" fill="#000" stroke="none" stroke-width="0" /><rect x="240" y="656" width="6" height="6" fill="#000" stroke="none" stroke-width="0" /><rect x="246" y="656" width="6" height="6" fill="#000" stroke="none" stroke-width="0" /><rect x="252" y="656" width="6" height="6" fill="#000" stroke="none" stroke-width="0" /><rect x="216" y="662" width="6" height="6" fill="#000" stroke="none" stroke-width="0" /><rect x="222" y="662" width="6" height="6" fill="#000" stroke="none" stroke-width="0" /><rect x="228" y="662" width="6" height="6" fill="#000" stroke="none" stroke-width="0" /><rect x="234" y="662" width="6" height="6" fill="#000" stroke="none" stroke-width="0" /><rect x="240" y="662" width="6" height="6" fill="#000" stroke="none" stroke-width="0" /><rect x="246" y="662" width="6" height="6" fill="#000" stroke="none" stroke-width="0" /><rect x="252" y="662" width="6" height="6" fill="#000" stroke="none" stroke-width="0" /><rect x="258" y="662" width="6" height="6" fill="#000" stroke="none" stroke-width="0" /><rect x="210" y="668" width="6" height="6" fill="#000" stroke="none" stroke-width="0" /><rect x="216" y="668" width="6" height="6" fill="#000" stroke="none" stroke-width="0" /><rect x="234" y="668" width="6" height="6" fill="#000" stroke="none" stroke-width="0" /><rect x="240" y="668" width="6" height="6" fill="#000" stroke="none" stroke-width="0" /><rect x="234" y="674" width="6" height="6" fill="#000" stroke="none" stroke-width="0" /><rect x="240" y="674" width="6" height="6" fill="#000" stroke="none" stroke-width="0" /><rect x="298" y="616" width="88" height="88" fill="#fff" stroke="#000" stroke-width="4" /><text x="342" y="640" font-family="monospace" font-size="20" font-weight="800" text-anchor="middle" fill="#000">T</text><text x="342" y="692" font-family="monospace" font-size="12" font-weight="600" text-anchor="middle" fill="#000">logic</text><rect x="334" y="644" width="6" height="6" fill="#000" stroke="none" stroke-width="0" /><rect x="340" y="644" width="6" height="6" fill="#000" stroke="none" stroke-width="0" /><rect x="328" y="650" width="6" height="6" fill="#000" stroke="none" stroke-width="0" /><rect x="334" y="650" width="6" height="6" fill="#000" stroke="none" stroke-width="0" /><rect x="340" y="650" width="6" height="6" fill="#000" stroke="none" stroke-width="0" /><rect x="346" y="650" width="6" height="6" fill="#000" stroke="none" stroke-width="0" /><rect x="322" y="656" width="6" height="6" fill="#000" stroke="none" stroke-width="0" /><rect x="328" y="656" width="6" height="6" fill="#000" stroke="none" stroke-width="0" /><rect x="334" y="656" width="6" height="6" fill="#000" stroke="none" stroke-width="0" /><rect x="340" y="656" width="6" height="6" fill="#000" stroke="none" stroke-width="0" /><rect x="346" y="656" width="6" height="6" fill="#000" stroke="none" stroke-width="0" /><rect x="352" y="656" width="6" height="6" fill="#000" stroke="none" stroke-width="0" /><rect x="334" y="662" width="6" height="6" fill="#000" stroke="none" stroke-width="0" /><rect x="340" y="662" width="6" height="6" fill="#000" stroke="none" stroke-width="0" /><rect x="328" y="668" width="6" height="6" fill="#000" stroke="none" stroke-width="0" /><rect x="334" y="668" width="6" height="6" fill="#000" stroke="none" stroke-width="0" /><rect x="340" y="668" width="6" height="6" fill="#000" stroke="none" stroke-width="0" /><rect x="346" y="668" width="6" height="6" fill="#000" stroke="none" stroke-width="0" /><rect x="334" y="674" width="6" height="6" fill="#000" stroke="none" stroke-width="0" /><rect x="340" y="674" width="6" height="6" fill="#000" stroke="none" stroke-width="0" /><rect x="404" y="616" width="88" height="88" fill="#fff" stroke="#000" stroke-width="4" /><text x="448" y="640" font-family="monospace" font-size="20" font-weight="800" text-anchor="middle" fill="#000">P</text><text x="448" y="692" font-family="monospace" font-size="12" font-weight="600" text-anchor="middle" fill="#000">explore</text><rect x="434" y="644" width="6" height="6" fill="#000" stroke="none" stroke-width="0" /><rect x="440" y="644" width="6" height="6" fill="#000" stroke="none" stroke-width="0" /><rect x="446" y="644" width="6" height="6" fill="#000" stroke="none" stroke-width="0" /><rect x="452" y="644" width="6" height="6" fill="#000" stroke="none" stroke-width="0" /><rect x="428" y="650" width="6" height="6" fill="#000" stroke="none" stroke-width="0" /><rect x="434" y="650" width="6" height="6" fill="#000" stroke="none" stroke-width="0" /><rect x="452" y="650" width="6" height="6" fill="#000" stroke="none" stroke-width="0" /><rect x="458" y="650" width="6" height="6" fill="#000" stroke="none" stroke-width="0" /><rect x="446" y="656" width="6" height="6" fill="#000" stroke="none" stroke-width="0" /><rect x="452" y="656" width="6" height="6" fill="#000" stroke="none" stroke-width="0" /><rect x="440" y="662" width="6" height="6" fill="#000" stroke="none" stroke-width="0" /><rect x="446" y="662" width="6" height="6" fill="#000" stroke="none" stroke-width="0" /><rect x="434" y="668" width="6" height="6" fill="#000" stroke="none" stroke-width="0" /><rect x="440" y="668" width="6" height="6" fill="#000" stroke="none" stroke-width="0" /><rect x="428" y="674" width="6" height="6" fill="#000" stroke="none" stroke-width="0" /><rect x="434" y="674" width="6" height="6" fill="#000" stroke="none" stroke-width="0" /><rect x="440" y="674" width="6" height="6" fill="#000" stroke="none" stroke-width="0" /><rect x="446" y="674" width="6" height="6" fill="#000" stroke="none" stroke-width="0" /><rect x="452" y="674" width="6" height="6" fill="#000" stroke="none" stroke-width="0" /><rect x="458" y="674" width="6" height="6" fill="#000" stroke="none" stroke-width="0" /><text x="320" y="742" font-family="monospace" font-size="16" font-weight="700" text-anchor="middle" fill="#000">shareable local-only card</text></svg>